<?xml version="1.0" encoding="utf-8"?>
<!-- Generator: Adobe Illustrator 17.0.0, SVG Export Plug-In . SVG Version: 6.00 Build 0)  -->
<!DOCTYPE svg PUBLIC "-//W3C//DTD SVG 1.1//EN" "http://www.w3.org/Graphics/SVG/1.1/DTD/svg11.dtd">
<svg version="1.1" id="Layer_1" xmlns="http://www.w3.org/2000/svg" xmlns:xlink="http://www.w3.org/1999/xlink" x="0px" y="0px"
	 width="342.3px" height="419.5px" viewBox="0 0 342.3 419.5" enable-background="new 0 0 342.3 419.5" xml:space="preserve">
<path id="font-color-icon" fill="#B6B5B5" d="M271.364,198.083c-43.184,64.416-70.936,104.693-70.936,143.869
	c0,39.178,31.758,70.937,70.936,70.937S342.3,381.13,342.3,341.952C342.299,302.776,314.546,262.499,271.364,198.083z
	 M276.249,290.347c-10.199,25.562-38.82,19.101-23.457-14.253c6.473-14.053,10.963-20.03,18.322-32.185
	C277.204,253.431,283.047,273.303,276.249,290.347z M127.536,342.403V57.952H71.598C51.938,57.952,36,73.89,36,93.549H1V1h334.424
	h0.023l-0.023,92.549h-35c0-19.659-15.938-35.597-35.596-35.597h-55.645v180.124c-24.146,38.802-38.756,70.274-38.756,103.876
	c0,27.682,11.205,52.794,29.312,71.048H79.68v-35h12.258C111.598,378,127.536,362.062,127.536,342.403z"/>
</svg>
