<?xml version="1.0" encoding="utf-8"?>
<!-- Generator: Adobe Illustrator 17.0.0, SVG Export Plug-In . SVG Version: 6.00 Build 0)  -->
<!DOCTYPE svg PUBLIC "-//W3C//DTD SVG 1.1//EN" "http://www.w3.org/Graphics/SVG/1.1/DTD/svg11.dtd">
<svg version="1.1" id="Layer_1" xmlns="http://www.w3.org/2000/svg" xmlns:xlink="http://www.w3.org/1999/xlink" x="0px" y="0px"
	 width="413px" height="412px" viewBox="0 0 413 412" enable-background="new 0 0 413 412" xml:space="preserve">
<path id="lifebuoy-icon" fill="#B6B5B5" d="M207,0C93.299,0,1,92.217,1,206c0,113.736,92.251,206,206,206
	c113.689,0,206-92.207,206-206C413,92.306,320.787,0,207,0z M281.953,280.953c-41.387,41.388-108.452,41.458-149.906,0
	c-41.395-41.395-41.441-108.465,0-149.906c41.416-41.416,108.48-41.428,149.906,0C323.344,172.435,323.4,239.511,281.953,280.953z
	 M287.258,43.675l-24.811,43.557c-34.916-16.342-75.943-16.355-110.895,0.001l-24.811-43.558
	C176.17,19.181,236.161,18.353,287.258,43.675z M44.555,125.988l43.562,24.814c-16.287,34.993-16.457,76.8,1.078,112.647
	L45.672,288.24C20.202,238.408,19.058,177.639,44.555,125.988z M128.02,368.949l24.828-43.587
	c34.195,15.547,74.063,15.566,108.305-0.001l24.828,43.588C237.028,392.725,178.216,393.329,128.02,368.949z M324.806,263.45
	c17.503-35.786,17.394-77.589,1.077-112.647l43.562-24.814c24.663,49.961,25.206,110.75-1.117,162.253L324.806,263.45z"/>
</svg>
