<?xml version="1.0" encoding="utf-8"?>
<!-- Generator: Adobe Illustrator 17.0.0, SVG Export Plug-In . SVG Version: 6.00 Build 0)  -->
<!DOCTYPE svg PUBLIC "-//W3C//DTD SVG 1.1//EN" "http://www.w3.org/Graphics/SVG/1.1/DTD/svg11.dtd">
<svg version="1.1" id="Layer_1" xmlns="http://www.w3.org/2000/svg" xmlns:xlink="http://www.w3.org/1999/xlink" x="0px" y="0px"
	 width="421.5px" height="421.5px" viewBox="0 0 421.5 421.5" enable-background="new 0 0 421.5 421.5" xml:space="preserve">
<path id="warning-4-icon" fill="#DC2C03" d="M181.55,88.812h54.9v166.5h-54.9L181.55,88.812L181.55,88.812z M209,339.188
	c-16.362,0-29.626-13.264-29.626-29.625c0-16.362,13.264-29.627,29.626-29.627c16.361,0,29.625,13.265,29.625,29.627
	C238.625,325.924,225.361,339.188,209,339.188z M209,44c91.742,0,166,74.245,166,166c0,91.741-74.245,166-166,166
	c-91.742,0-166-74.245-166-166C43,118.259,117.245,44,209,44z M209,4C95.229,4,3,96.229,3,210s92.229,206,206,206
	s206-92.229,206-206S322.771,4,209,4z"/>
</svg>
