<?xml version="1.0" encoding="utf-8"?>
<!-- Generator: Adobe Illustrator 17.0.0, SVG Export Plug-In . SVG Version: 6.00 Build 0)  -->
<!DOCTYPE svg PUBLIC "-//W3C//DTD SVG 1.1//EN" "http://www.w3.org/Graphics/SVG/1.1/DTD/svg11.dtd">
<svg version="1.1" xmlns="http://www.w3.org/2000/svg" xmlns:xlink="http://www.w3.org/1999/xlink" x="0px" y="0px" width="415px"
	 height="414px" viewBox="0 0 415 414" enable-background="new 0 0 415 414" xml:space="preserve">
<g id="Layer_2">
	<circle fill="#FFFFFF" cx="217" cy="208" r="177.5"/>
</g>
<g id="Layer_1">
	<path id="x-mark-4-icon" fill="#B6B5B5" d="M415,208c0,113.771-92.229,206-206,206S3,321.771,3,208S95.229,2,209,2
		S415,94.229,415,208z M375,208c0-91.755-74.258-166-166-166c-91.755,0-166,74.259-166,166c0,91.755,74.258,166,166,166
		C300.755,374,375,299.741,375,208z M278.329,314.49l-67.327-67.324l-67.329,67.332l-36.164-36.186l67.314-67.322l-67.321-67.317
		l36.185-36.164l67.31,67.301l67.3-67.309l36.193,36.17l-67.312,67.315l67.32,67.31L278.329,314.49z"/>
</g>
</svg>
