<?xml version="1.0" encoding="utf-8"?>
<!-- Generator: Adobe Illustrator 17.0.0, SVG Export Plug-In . SVG Version: 6.00 Build 0)  -->
<!DOCTYPE svg PUBLIC "-//W3C//DTD SVG 1.1//EN" "http://www.w3.org/Graphics/SVG/1.1/DTD/svg11.dtd">
<svg version="1.1" id="Layer_1" xmlns="http://www.w3.org/2000/svg" xmlns:xlink="http://www.w3.org/1999/xlink" x="0px" y="0px"
	 width="417.5px" height="417.5px" viewBox="0 0 417.5 417.5" enable-background="new 0 0 417.5 417.5" xml:space="preserve">
<path id="wrench-7-icon" fill="#B6B5B5" d="M209,3C95.229,3,3,95.229,3,209s92.229,206,206,206c113.716,0,206-92.208,206-206
	C415,95.229,322.771,3,209,3z M355.631,286.983l-28.964-28.964c-11.249-11.249-17.07-26.818-15.979-42.688
	c1.959-28.476-7.94-57.61-29.708-79.378c-28.623-28.623-69.984-36.729-105.832-24.333l65.082,65.083
	c1.494,25.39-37.764,64.646-63.153,63.152l-65.081-65.082c-12.396,35.848-4.291,77.21,24.332,105.833
	c21.767,21.768,50.902,31.666,79.378,29.707c15.855-1.091,31.45,4.74,42.688,15.979l29.076,29.075
	C263.626,368.191,236.837,375,209,375c-44.341,0-86.027-17.267-117.38-48.62S43,253.341,43,209s17.267-86.027,48.62-117.38
	S164.659,43,209,43s86.027,17.267,117.38,48.62S375,164.659,375,209C375,236.647,368.285,263.261,355.631,286.983z"/>
</svg>
