<?xml version="1.0" encoding="utf-8"?>
<!-- Generator: Adobe Illustrator 17.0.0, SVG Export Plug-In . SVG Version: 6.00 Build 0)  -->
<!DOCTYPE svg PUBLIC "-//W3C//DTD SVG 1.1//EN" "http://www.w3.org/Graphics/SVG/1.1/DTD/svg11.dtd">
<svg version="1.1" id="Layer_1" xmlns="http://www.w3.org/2000/svg" xmlns:xlink="http://www.w3.org/1999/xlink" x="0px" y="0px"
	 width="201.5px" height="220.5px" viewBox="0 0 201.5 220.5" enable-background="new 0 0 201.5 220.5" xml:space="preserve">
<path fill="#D94B29" d="M7.154,137.722c-7.351-34.609,4.417-70.812,30.712-94.481c26.296-23.671,63.533-31.58,97.18-20.643
	c0.848,0.276,1.709,0.57,2.578,0.881l1.244,0.445L148.068,3l32.085,54.627L118.27,70.772l9.506-21.62l-1.497-0.481
	c-24.254-7.78-51.08-2.027-70.01,15.013c-19.016,17.118-27.526,43.297-22.21,68.323c5.316,25.027,23.733,45.486,48.065,53.396
	c24.331,7.908,51.258,2.188,70.274-14.927c7.857-7.073,13.934-15.591,18.062-25.316l1.394-3.283l25.318,10.751l-1.394,3.283
	c-5.711,13.452-14.116,25.23-24.979,35.007c-26.296,23.672-63.533,31.581-97.18,20.643C39.974,200.623,14.505,172.33,7.154,137.722z
	"/>
</svg>
