<?xml version="1.0" encoding="utf-8"?>
<!-- Generator: Adobe Illustrator 17.0.0, SVG Export Plug-In . SVG Version: 6.00 Build 0)  -->
<!DOCTYPE svg PUBLIC "-//W3C//DTD SVG 1.1//EN" "http://www.w3.org/Graphics/SVG/1.1/DTD/svg11.dtd">
<svg version="1.1" id="Layer_1" xmlns="http://www.w3.org/2000/svg" xmlns:xlink="http://www.w3.org/1999/xlink" x="0px" y="0px"
	 width="20px" height="20px" viewBox="0 0 20 20" enable-background="new 0 0 20 20" xml:space="preserve">
<path id="checkbox-4-icon" display="none" fill="#FFFFFF" d="M17.714,2.286v15.429H2.286V2.286H17.714z M20,0H0v20h20V0z
	 M14.536,4.949l-6.172,6.172L5.691,8.447l-1.982,1.983l4.656,4.657l8.155-8.156L14.536,4.949z"/>
<path id="checkbox-6-icon" fill="#BFC1C1" d="M17.714,2.286v15.429H2.286V2.286H17.714z M20,0H0v20h20V0z M15.694,13.722
	l-3.666-3.666l3.666-3.666l-1.971-1.97l-3.665,3.666L6.391,4.421L4.42,6.39l3.667,3.666l-3.666,3.667l1.97,1.971l3.667-3.667
	l3.667,3.667L15.694,13.722z"/>
</svg>
