<?xml version="1.0" encoding="utf-8"?>
<!-- Generator: Adobe Illustrator 17.0.0, SVG Export Plug-In . SVG Version: 6.00 Build 0)  -->
<!DOCTYPE svg PUBLIC "-//W3C//DTD SVG 1.1//EN" "http://www.w3.org/Graphics/SVG/1.1/DTD/svg11.dtd">
<svg version="1.1" id="Layer_1" xmlns="http://www.w3.org/2000/svg" xmlns:xlink="http://www.w3.org/1999/xlink" x="0px" y="0px"
	 width="228.5px" height="206.5px" viewBox="0 0 228.5 206.5" enable-background="new 0 0 228.5 206.5" xml:space="preserve">
<path fill="#4695BE" d="M125.044,203.001c-35.401,0-68.388-19.045-86.088-49.703c-7.885-13.658-12.407-29.049-13.191-44.776H3
	l36.745-50.99l36.598,50.99H53.432c0.751,10.881,3.979,21.501,9.443,30.966c12.782,22.139,36.604,35.893,62.169,35.893
	c25.564,0,49.386-13.753,62.169-35.893c12.782-22.14,12.782-49.647,0-71.787c-12.783-22.14-36.605-35.893-62.169-35.893
	c-19.175,0-37.203,7.467-50.762,21.025l-3.253,3.253L51.498,36.555l3.254-3.253c9.217-9.216,19.993-16.434,32.03-21.455
	c12.181-5.082,25.055-7.658,38.264-7.658c35.401,0,68.389,19.045,86.089,49.703c17.701,30.659,17.701,68.749,0,99.407
	C193.433,183.955,160.446,203.001,125.044,203.001z"/>
</svg>
